<svg xmlns="http://www.w3.org/2000/svg" width="1280" height="720" viewBox="0 0 1280 720" role="img" aria-label="Sacred Geometry Studio interface preview">
  <defs>
    <radialGradient id="stageGlow" cx="48%" cy="42%" r="70%">
      <stop offset="0%" stop-color="#2b1e4d"/>
      <stop offset="58%" stop-color="#0d0d16"/>
      <stop offset="100%" stop-color="#030306"/>
    </radialGradient>
    <linearGradient id="panel" x1="0%" y1="0%" x2="100%" y2="100%">
      <stop offset="0%" stop-color="#191925"/>
      <stop offset="100%" stop-color="#08090f"/>
    </linearGradient>
    <filter id="softGlow" x="-40%" y="-40%" width="180%" height="180%">
      <feGaussianBlur stdDeviation="5" result="blur"/>
      <feMerge>
        <feMergeNode in="blur"/>
        <feMergeNode in="SourceGraphic"/>
      </feMerge>
    </filter>
  </defs>
  <rect width="1280" height="720" fill="#050507"/>
  <rect x="24" y="24" width="1232" height="74" rx="8" fill="url(#panel)" stroke="#3c3047"/>
  <circle cx="68" cy="61" r="20" fill="none" stroke="#d9a84f" stroke-width="2"/>
  <circle cx="68" cy="61" r="7" fill="#d9a84f"/>
  <text x="105" y="55" fill="#eee6d6" font-family="Inter, Arial, sans-serif" font-size="23" font-weight="700">Sacred Geometry Studio</text>
  <text x="105" y="78" fill="#a7a1b6" font-family="Inter, Arial, sans-serif" font-size="13">Procedural SVG artwork generator</text>
  <rect x="894" y="42" width="138" height="38" rx="8" fill="#d9a84f"/>
  <text x="924" y="66" fill="#100c08" font-family="Inter, Arial, sans-serif" font-size="14" font-weight="700">Random Design</text>
  <rect x="1044" y="42" width="74" height="38" rx="8" fill="#151722" stroke="#594c68"/>
  <text x="1067" y="66" fill="#eee6d6" font-family="Inter, Arial, sans-serif" font-size="14" font-weight="700">SVG</text>
  <rect x="1130" y="42" width="74" height="38" rx="8" fill="#151722" stroke="#594c68"/>
  <text x="1151" y="66" fill="#eee6d6" font-family="Inter, Arial, sans-serif" font-size="14" font-weight="700">PNG</text>

  <rect x="24" y="122" width="812" height="574" rx="8" fill="#090a10" stroke="#2a2437"/>
  <rect x="54" y="152" width="752" height="514" rx="8" fill="url(#stageGlow)" stroke="#2f2741"/>
  <g transform="translate(430 409)" filter="url(#softGlow)" fill="none" stroke-linecap="round" stroke-linejoin="round">
    <circle r="152" stroke="#d9a84f" stroke-width="2.4" opacity=".92"/>
    <circle cx="76" r="152" stroke="#d9a84f" stroke-width="2.4" opacity=".74"/>
    <circle cx="-76" r="152" stroke="#d9a84f" stroke-width="2.4" opacity=".74"/>
    <circle cx="38" cy="65.8" r="152" stroke="#d9a84f" stroke-width="2.4" opacity=".62"/>
    <circle cx="-38" cy="65.8" r="152" stroke="#d9a84f" stroke-width="2.4" opacity=".62"/>
    <circle cx="38" cy="-65.8" r="152" stroke="#d9a84f" stroke-width="2.4" opacity=".62"/>
    <circle cx="-38" cy="-65.8" r="152" stroke="#d9a84f" stroke-width="2.4" opacity=".62"/>
    <polygon points="0,-186 161,93 -161,93" stroke="#8f6bff" stroke-width="1.5" opacity=".45"/>
    <polygon points="0,186 161,-93 -161,-93" stroke="#52c8f0" stroke-width="1.5" opacity=".38"/>
    <circle r="18" fill="#d9a84f" fill-opacity=".18" stroke="#d9a84f" stroke-width="2"/>
  </g>

  <rect x="858" y="122" width="398" height="574" rx="8" fill="url(#panel)" stroke="#3c3047"/>
  <text x="884" y="159" fill="#d9a84f" font-family="Inter, Arial, sans-serif" font-size="11" font-weight="800">MOOD PRESETS</text>
  <rect x="884" y="178" width="160" height="40" rx="8" fill="#211b27" stroke="#775f34"/>
  <text x="904" y="203" fill="#eee6d6" font-family="Inter, Arial, sans-serif" font-size="14" font-weight="700">Ancient Gold</text>
  <rect x="1058" y="178" width="160" height="40" rx="8" fill="#141620" stroke="#3b3553"/>
  <text x="1077" y="203" fill="#eee6d6" font-family="Inter, Arial, sans-serif" font-size="14" font-weight="700">Cosmic Violet</text>
  <text x="884" y="263" fill="#d9a84f" font-family="Inter, Arial, sans-serif" font-size="11" font-weight="800">PATTERN</text>
  <rect x="884" y="282" width="334" height="42" rx="8" fill="#11131c" stroke="#3b3553"/>
  <text x="902" y="308" fill="#eee6d6" font-family="Inter, Arial, sans-serif" font-size="14">Flower of Life</text>
  <text x="884" y="364" fill="#a7a1b6" font-family="Inter, Arial, sans-serif" font-size="13">Rings / Complexity</text>
  <rect x="884" y="382" width="334" height="8" rx="4" fill="#2a2030"/>
  <rect x="884" y="382" width="210" height="8" rx="4" fill="#d9a84f"/>
  <circle cx="1094" cy="386" r="10" fill="#11131c" stroke="#f1dba6" stroke-width="2"/>
  <text x="884" y="439" fill="#a7a1b6" font-family="Inter, Arial, sans-serif" font-size="13">Overlay Size</text>
  <rect x="884" y="457" width="334" height="8" rx="4" fill="#2a2030"/>
  <rect x="884" y="457" width="282" height="8" rx="4" fill="#8f6bff"/>
  <circle cx="1166" cy="461" r="10" fill="#11131c" stroke="#f1dba6" stroke-width="2"/>
</svg>
